<svg width="64" height="64" viewBox="0 0 64 64" fill="none" xmlns="http://www.w3.org/2000/svg">
<rect width="64" height="64" rx="16" fill="black"/>
<path d="M14.2531 8.14316C14.341 8.50732 15.049 10.4989 15.4298 11.4565C15.9913 12.8457 16.1329 13.1964 16.5284 14.136C17.0899 15.4937 18.1543 17.9979 18.7354 19.3511C18.9893 19.9445 19.3213 20.7133 19.4678 21.0595C19.6142 21.4056 20.0976 22.5296 20.5419 23.5546C21.9091 26.7286 22.2606 27.6098 25.4148 35.9629C25.737 36.8171 26.0593 37.6263 26.1325 37.7612C26.2936 38.0714 26.6305 38.3816 26.9479 38.5255C27.2702 38.6694 27.9342 38.7053 28.2711 38.5974C28.8228 38.4266 29.3062 37.9815 29.4917 37.478C29.6675 37.0104 29.6236 36.7182 29.1597 35.2661C28.9302 34.5467 28.691 33.8004 28.6324 33.6026C28.5738 33.4048 28.4762 33.0811 28.4078 32.8833C28.1588 32.1055 27.1188 28.7202 27.0016 28.2976C26.9333 28.0504 26.7233 27.1692 26.5329 26.342C25.7858 23.123 25.0876 21.5585 23.1834 18.8296C21.4257 16.3075 18.0176 12.068 15.8449 9.70768C14.5949 8.34997 14.2678 7.9993 14.2434 7.9993C14.2336 7.9993 14.2385 8.06673 14.2531 8.14316Z" fill="white"/>
<path d="M50.5025 14.2801C49.111 15.5838 48.0417 16.6718 46.6941 18.1599C45.0242 20.0032 44.2967 21.0372 42.3681 24.2966C41.4941 25.7757 41.3037 26.1084 41.1328 26.4681L40.9766 26.8007L41.3037 27.7718C41.748 29.0891 42.0654 30.0017 42.0849 30.0242C42.124 30.0557 42.7148 29.8444 43.0321 29.6825C43.4276 29.4802 43.6669 29.2779 43.9012 28.9587C44.1063 28.671 45.5076 26.1893 46.3133 24.6787C47.3288 22.7815 48.818 19.6075 49.7848 17.2832C50.3512 15.93 51.2398 13.7226 51.2398 13.6821C51.2398 13.6147 51.0884 13.7361 50.5025 14.2801Z" fill="white"/>
<path d="M29.0979 26.1765C28.7561 26.2844 28.5071 26.4192 28.2727 26.6395C28.0042 26.8958 27.8333 27.206 27.7552 27.5971C27.6722 28.0332 27.7015 28.1726 28.1604 29.5348C28.5657 30.7352 29.2493 32.8796 29.7766 34.615C30.0939 35.676 30.5285 37.1551 30.5627 37.3125C30.6652 37.7755 31.0949 38.2746 31.5538 38.4724C31.7931 38.5758 31.9005 38.5938 32.2716 38.5938C32.6476 38.5938 32.7501 38.5758 32.9893 38.4724C33.546 38.2341 33.9219 37.7351 34.0196 37.1146L34.0733 36.782L33.6924 35.4647C33.4825 34.7364 33.2383 33.9002 33.1505 33.6035C33.0577 33.3067 32.838 32.5784 32.6622 31.985C32.4815 31.3915 32.2228 30.5329 32.0763 30.0743C31.5587 28.4154 31.4708 28.1096 31.3732 27.7005C31.2023 26.9722 30.8459 26.5181 30.2551 26.2664C29.9426 26.1315 29.386 26.0911 29.0979 26.1765Z" fill="white"/>
<path d="M33.5653 26.2753C33.0282 26.4147 32.6376 26.7249 32.4032 27.1925C32.3007 27.3948 32.2714 27.5342 32.2567 27.8758C32.2372 28.267 32.2519 28.3524 32.413 28.8424C32.9843 30.5958 33.9461 33.7788 34.9178 37.1326C35.074 37.6721 35.2254 37.9463 35.5086 38.2071C35.8796 38.5488 36.1335 38.6387 36.7146 38.6387C37.1296 38.6387 37.237 38.6207 37.4372 38.5353C37.7594 38.3869 38.0719 38.0902 38.2575 37.7575C38.3942 37.5102 38.4186 37.4113 38.4381 37.0652C38.4625 36.5661 38.4284 36.4358 36.8659 31.378C36.2654 29.4359 35.738 27.7095 35.6892 27.5431C35.4304 26.6215 34.4686 26.0461 33.5653 26.2753Z" fill="white"/>
<path d="M37.9944 26.2522C37.3108 26.4141 36.8128 26.9491 36.6907 27.6684C36.6224 28.064 36.6468 28.2079 36.9104 29.0306C37.1155 29.6645 37.2278 30.0197 38.1799 33.0633C38.4143 33.8051 38.8293 35.2303 39.1076 36.2328C40.0451 39.6091 40.5626 41.1107 41.3829 42.8326C41.9395 44.0015 43.1358 46.0471 43.7705 46.9102C43.8437 47.0092 44.3076 47.6745 44.7959 48.3938C45.8407 49.9134 47.3983 52.0714 48.0672 52.9121C48.6678 53.6674 49.4539 54.616 49.9079 55.1375C50.6355 55.9737 50.7038 56.0456 50.7038 55.9827C50.7038 55.7399 48.9607 50.8935 47.9061 48.1915C47.7547 47.8094 47.4178 46.9372 47.1639 46.2584C46.9051 45.5795 46.3534 44.1903 45.9433 43.1788C45.5331 42.1627 45.0156 40.8679 44.7959 40.3015C43.4775 36.8847 43.1455 35.999 42.4278 34.0074C41.671 31.9214 40.8165 29.4847 40.299 27.9741C40.0304 27.1784 39.8791 26.9041 39.5812 26.6524C39.1711 26.3017 38.5071 26.1354 37.9944 26.2522Z" fill="white"/>
<path d="M44.0856 31.0506C43.5192 31.172 42.611 31.4957 42.5524 31.5991C42.5036 31.689 43.5631 34.7461 43.7047 34.9214C43.9391 35.2092 43.9879 35.2226 44.9302 35.2181C45.604 35.2181 45.9995 35.1912 46.7222 35.0923C49.2025 34.7641 51.9173 34.2291 54.6808 33.5277C55.2716 33.3794 55.8038 33.2445 55.8673 33.231C55.9259 33.222 55.9845 33.1951 55.9991 33.1771C56.0577 33.0872 51.5364 32.0127 49.5053 31.635C47.9575 31.3428 47.2055 31.2304 46.0532 31.109C45.2818 31.0281 44.3248 30.9966 44.0856 31.0506Z" fill="white"/>
<path d="M20.7233 31.1796C20.6306 31.1886 20.2986 31.2201 19.9909 31.2471C17.867 31.4269 14.3369 32.0518 10.9825 32.8341C8.8293 33.3376 7.89673 33.5893 8.00903 33.6343C8.12133 33.6748 10.0841 34.0344 11.8614 34.3401C15.4501 34.9561 18.5652 35.3517 20.3083 35.4191C21.3434 35.4596 21.8024 35.4281 22.1735 35.2932C22.5348 35.1629 23.6871 34.6279 23.7261 34.5739C23.7847 34.4795 22.6373 31.5977 22.4762 31.4404C22.3102 31.274 21.9733 31.1931 21.4069 31.1751C21.1237 31.1661 20.8161 31.1706 20.7233 31.1796Z" fill="white"/>
<path d="M23.6296 36.1794C22.9607 36.4986 22.5945 36.8583 22.1502 37.627C21.2664 39.1691 20.3631 40.9539 19.1766 43.5165C18.3368 45.3373 17.7216 46.6275 17.0967 47.8774C16.54 49.0013 15.6856 50.7277 15.4268 51.2492C15.0753 51.964 14.67 52.8811 14.6944 52.9036C14.7237 52.9351 15.9346 51.8561 16.6963 51.1188C19.5233 48.3899 21.2908 46.3083 22.7117 44.0335C23.6345 42.5634 24.9137 40.1582 25.2701 39.2365C25.402 38.8859 25.4117 38.9353 25.0114 37.9417C24.8649 37.5821 24.6305 36.9931 24.484 36.6245C24.2936 36.1389 24.2057 35.9636 24.1471 35.9636C24.1032 35.9681 23.8737 36.0625 23.6296 36.1794Z" fill="white"/>
</svg>
