<svg width="64" height="64" viewBox="0 0 64 64" fill="none" xmlns="http://www.w3.org/2000/svg">
<path d="M12.0343 5.16107C12.1332 5.57074 12.9296 7.81128 13.3581 8.88856C13.9898 10.4514 14.1491 10.8459 14.594 11.9029C15.2257 13.4303 16.4232 16.2474 17.0768 17.7698C17.3625 18.4374 17.736 19.3023 17.9008 19.6917C18.0656 20.0811 18.6094 21.3456 19.1092 22.4987C20.6473 26.0694 21.0428 27.0607 24.5912 36.4578C24.9537 37.4188 25.3163 38.3292 25.3987 38.4809C25.5799 38.8299 25.959 39.1788 26.316 39.3407C26.6785 39.5025 27.4256 39.543 27.8046 39.4216C28.4253 39.2294 28.9691 38.7287 29.1778 38.1623C29.3756 37.6363 29.3261 37.3075 28.8043 35.6739C28.5461 34.8647 28.277 34.0251 28.2111 33.8026C28.1452 33.58 28.0353 33.2159 27.9584 32.9933C27.6783 32.1184 26.5083 28.3099 26.3764 27.8345C26.2995 27.5564 26.0633 26.5651 25.8491 25.6344C25.0087 22.0132 24.2232 20.2531 22.0809 17.1831C20.1035 14.3458 16.2694 9.5764 13.825 6.92113C12.4188 5.39372 12.0508 4.99922 12.0233 4.99922C12.0123 4.99922 12.0178 5.07509 12.0343 5.16107Z" fill="white"/>
<path d="M52.8164 12.0658C51.2509 13.5325 50.0479 14.7565 48.5319 16.4306C46.6533 18.5042 45.8348 19.6675 43.6651 23.3343C42.6819 24.9982 42.4676 25.3725 42.2754 25.7771L42.0996 26.1514L42.4676 27.2438C42.9675 28.7257 43.3245 29.7524 43.3465 29.7777C43.3905 29.8131 44.0551 29.5754 44.4121 29.3933C44.8571 29.1657 45.1262 28.9381 45.3899 28.579C45.6206 28.2554 47.1971 25.4635 48.1034 23.7642C49.246 21.6298 50.9213 18.0591 52.0089 15.4443C52.6461 13.922 53.6458 11.4387 53.6458 11.3932C53.6458 11.3173 53.4756 11.4538 52.8164 12.0658Z" fill="white"/>
<path d="M28.7351 25.4487C28.3506 25.5701 28.0705 25.7218 27.8068 25.9697C27.5047 26.258 27.3125 26.6069 27.2246 27.047C27.1312 27.5375 27.1642 27.6943 27.6805 29.2268C28.1364 30.5772 28.9054 32.9897 29.4987 34.9419C29.8557 36.1356 30.3446 37.7995 30.383 37.9765C30.4984 38.4975 30.9818 39.0589 31.4981 39.2814C31.7673 39.3977 31.8881 39.418 32.3056 39.418C32.7285 39.418 32.8439 39.3977 33.113 39.2814C33.7392 39.0134 34.1622 38.452 34.2721 37.754L34.3325 37.3797L33.904 35.8978C33.6678 35.0785 33.3932 34.1378 33.2943 33.804C33.1899 33.4702 32.9428 32.6508 32.745 31.9832C32.5418 31.3156 32.2506 30.3496 32.0859 29.8337C31.5036 27.9674 31.4047 27.6235 31.2949 27.1633C31.1026 26.3439 30.7016 25.8331 30.037 25.5499C29.6854 25.3982 29.0592 25.3526 28.7351 25.4487Z" fill="white"/>
<path d="M33.761 25.5602C33.1567 25.717 32.7173 26.066 32.4536 26.592C32.3383 26.8196 32.3053 26.9764 32.2888 27.3607C32.2669 27.8007 32.2833 27.8968 32.4646 28.4481C33.1073 30.4206 34.1894 34.0014 35.2825 37.7744C35.4583 38.3814 35.6286 38.6899 35.9472 38.9832C36.3646 39.3676 36.6503 39.4688 37.3039 39.4688C37.7708 39.4688 37.8917 39.4485 38.1169 39.3524C38.4794 39.1855 38.831 38.8517 39.0397 38.4775C39.1935 38.1993 39.221 38.088 39.2429 37.6986C39.2704 37.1372 39.232 36.9905 37.4742 31.3006C36.7986 29.1157 36.2053 27.1736 36.1504 26.9865C35.8593 25.9496 34.7772 25.3023 33.761 25.5602Z" fill="white"/>
<path d="M38.7434 25.5343C37.9744 25.7163 37.4141 26.3182 37.2768 27.1274C37.1999 27.5725 37.2274 27.7343 37.524 28.6599C37.7547 29.373 37.881 29.7726 38.9522 33.1966C39.2158 34.0311 39.6827 35.6344 39.9958 36.7623C41.0505 40.5605 41.6327 42.2498 42.5556 44.1869C43.1818 45.5019 44.5275 47.8031 45.2416 48.7742C45.324 48.8854 45.8459 49.634 46.3952 50.4432C47.5706 52.1527 49.3229 54.5804 50.0754 55.5261C50.7511 56.3758 51.6354 57.443 52.1463 58.0297C52.9647 58.9704 53.0416 59.0513 53.0416 58.9805C53.0416 58.7074 51.0807 53.2553 49.8942 50.2156C49.7239 49.7857 49.3449 48.8045 49.0592 48.0408C48.7681 47.2771 48.1474 45.7143 47.686 44.5763C47.2246 43.4333 46.6423 41.9767 46.3952 41.3394C44.912 37.4956 44.5385 36.4993 43.7311 34.2587C42.8796 31.912 41.9184 29.1707 41.3361 27.4713C41.034 26.5761 40.8637 26.2676 40.5287 25.9844C40.0672 25.5899 39.3202 25.4028 38.7434 25.5343Z" fill="white"/>
<path d="M45.5958 30.932C44.9586 31.0685 43.9369 31.4327 43.871 31.549C43.8161 31.6502 45.008 35.0894 45.1673 35.2866C45.431 35.6103 45.4859 35.6255 46.5461 35.6204C47.3041 35.6204 47.749 35.5901 48.562 35.4788C51.3524 35.1096 54.4065 34.5077 57.5155 33.7187C58.1802 33.5518 58.7789 33.4001 58.8503 33.3849C58.9162 33.3748 58.9821 33.3445 58.9986 33.3242C59.0645 33.2231 53.978 32.0143 51.693 31.5895C49.9517 31.2607 49.1058 31.1343 47.8094 30.9977C46.9416 30.9067 45.8649 30.8713 45.5958 30.932Z" fill="white"/>
<path d="M19.3138 31.0774C19.2095 31.0875 18.836 31.1229 18.4899 31.1533C16.1005 31.3556 12.129 32.0586 8.35537 32.9386C5.93297 33.5051 4.88382 33.7883 5.01015 33.8389C5.13649 33.8844 7.34467 34.289 9.34411 34.6329C13.3814 35.3258 16.886 35.7709 18.8469 35.8468C20.0115 35.8923 20.5278 35.8569 20.9453 35.7051C21.3517 35.5585 22.6481 34.9566 22.692 34.8959C22.7579 34.7897 21.4671 31.5477 21.2858 31.3707C21.0991 31.1836 20.72 31.0926 20.0829 31.0723C19.7643 31.0622 19.4182 31.0673 19.3138 31.0774Z" fill="white"/>
<path d="M22.5826 36.7024C21.8301 37.0614 21.4181 37.4661 20.9182 38.3309C19.924 40.0657 18.9078 42.0736 17.573 44.9564C16.6282 47.0048 15.9361 48.4563 15.233 49.8624C14.6068 51.1268 13.6456 53.0689 13.3544 53.6556C12.9589 54.4598 12.503 55.4915 12.5305 55.5168C12.5634 55.5522 13.9257 54.3384 14.7826 53.5089C17.963 50.4389 19.9515 48.0972 21.5499 45.5381C22.5881 43.8842 24.0273 41.1784 24.4283 40.1416C24.5766 39.7471 24.5875 39.8027 24.1371 38.685C23.9723 38.2803 23.7087 37.6178 23.5439 37.2031C23.3297 36.6568 23.2308 36.4596 23.1649 36.4596C23.1154 36.4646 22.8573 36.5709 22.5826 36.7024Z" fill="white"/>
</svg>
