<svg width="64" height="64" viewBox="0 0 64 64" fill="none" xmlns="http://www.w3.org/2000/svg">
<path d="M12.0362 5.16107C12.1351 5.57074 12.9316 7.81128 13.36 8.88856C13.9917 10.4514 14.151 10.8459 14.596 11.9029C15.2276 13.4303 16.4251 16.2474 17.0788 17.7698C17.3644 18.4374 17.7379 19.3023 17.9027 19.6917C18.0675 20.0811 18.6113 21.3456 19.1112 22.4987C20.6492 26.0694 21.0447 27.0607 24.5932 36.4578C24.9557 37.4188 25.3182 38.3292 25.4006 38.4809C25.5819 38.8299 25.9609 39.1788 26.318 39.3407C26.6805 39.5025 27.4275 39.543 27.8066 39.4216C28.4273 39.2294 28.9711 38.7287 29.1798 38.1623C29.3775 37.6363 29.3281 37.3075 28.8063 35.6739C28.5481 34.8647 28.2789 34.0251 28.213 33.8026C28.1471 33.58 28.0373 33.2159 27.9604 32.9933C27.6802 32.1184 26.5102 28.3099 26.3784 27.8345C26.3015 27.5564 26.0653 26.5651 25.8511 25.6344C25.0106 22.0132 24.2251 20.2531 22.0829 17.1831C20.1054 14.3458 16.2713 9.5764 13.8269 6.92113C12.4207 5.39372 12.0527 4.99922 12.0252 4.99922C12.0143 4.99922 12.0198 5.07509 12.0362 5.16107Z" fill="#09090B"/>
<path d="M52.8164 12.0658C51.2509 13.5325 50.0479 14.7565 48.5319 16.4306C46.6533 18.5042 45.8348 19.6675 43.6651 23.3343C42.6819 24.9982 42.4676 25.3725 42.2754 25.7771L42.0996 26.1514L42.4676 27.2438C42.9675 28.7257 43.3245 29.7524 43.3465 29.7777C43.3905 29.8131 44.0551 29.5754 44.4122 29.3933C44.8571 29.1657 45.1262 28.9381 45.3899 28.579C45.6206 28.2554 47.1971 25.4635 48.1034 23.7642C49.246 21.6298 50.9213 18.0591 52.0089 15.4443C52.6461 13.922 53.6458 11.4387 53.6458 11.3931C53.6458 11.3173 53.4756 11.4538 52.8164 12.0658Z" fill="#09090B"/>
<path d="M28.7351 25.4487C28.3506 25.5701 28.0705 25.7218 27.8068 25.9697C27.5047 26.258 27.3125 26.6069 27.2246 27.047C27.1312 27.5375 27.1642 27.6943 27.6805 29.2268C28.1364 30.5772 28.9054 32.9897 29.4987 34.9419C29.8557 36.1356 30.3446 37.7995 30.383 37.9765C30.4984 38.4975 30.9818 39.0589 31.4981 39.2814C31.7673 39.3977 31.8881 39.418 32.3056 39.418C32.7285 39.418 32.8439 39.3977 33.113 39.2814C33.7392 39.0134 34.1622 38.452 34.2721 37.754L34.3325 37.3797L33.904 35.8978C33.6678 35.0785 33.3932 34.1378 33.2943 33.804C33.1899 33.4702 32.9428 32.6508 32.745 31.9832C32.5418 31.3156 32.2506 30.3496 32.0859 29.8337C31.5036 27.9674 31.4047 27.6235 31.2949 27.1633C31.1026 26.3439 30.7016 25.8331 30.037 25.5499C29.6854 25.3982 29.0592 25.3526 28.7351 25.4487Z" fill="#09090B"/>
<path d="M33.7629 25.5602C33.1587 25.717 32.7192 26.066 32.4556 26.592C32.3402 26.8196 32.3073 26.9763 32.2908 27.3607C32.2688 27.8007 32.2853 27.8968 32.4666 28.4481C33.1092 30.4206 34.1914 34.0014 35.2845 37.7744C35.4602 38.3814 35.6305 38.6899 35.9491 38.9832C36.3666 39.3676 36.6522 39.4688 37.3059 39.4688C37.7728 39.4688 37.8936 39.4485 38.1188 39.3524C38.4814 39.1855 38.8329 38.8517 39.0416 38.4775C39.1955 38.1993 39.2229 38.088 39.2449 37.6986C39.2724 37.1372 39.2339 36.9905 37.4762 31.3006C36.8005 29.1157 36.2073 27.1736 36.1523 26.9865C35.8612 25.9496 34.7791 25.3023 33.7629 25.5602Z" fill="#09090B"/>
<path d="M38.7454 25.5343C37.9764 25.7163 37.4161 26.3182 37.2788 27.1274C37.2019 27.5725 37.2293 27.7343 37.526 28.6599C37.7567 29.373 37.883 29.7726 38.9541 33.1966C39.2178 34.0311 39.6847 35.6344 39.9978 36.7623C41.0524 40.5605 41.6347 42.2498 42.5575 44.1869C43.1837 45.5019 44.5295 47.8031 45.2436 48.7742C45.326 48.8854 45.8478 49.634 46.3971 50.4432C47.5726 52.1527 49.3249 54.5804 50.0774 55.5261C50.753 56.3758 51.6374 57.443 52.1482 58.0297C52.9667 58.9704 53.0436 59.0513 53.0436 58.9805C53.0436 58.7074 51.0826 53.2553 49.8961 50.2156C49.7258 49.7857 49.3468 48.8045 49.0612 48.0408C48.7701 47.2771 48.1494 45.7143 47.688 44.5763C47.2265 43.4333 46.6443 41.9767 46.3971 41.3394C44.914 37.4956 44.5405 36.4993 43.733 34.2587C42.8816 31.912 41.9203 29.1707 41.3381 27.4713C41.036 26.5761 40.8657 26.2676 40.5306 25.9844C40.0692 25.5899 39.3222 25.4028 38.7454 25.5343Z" fill="#09090B"/>
<path d="M45.5977 30.932C44.9605 31.0685 43.9388 31.4327 43.8729 31.549C43.818 31.6502 45.01 35.0894 45.1693 35.2866C45.4329 35.6103 45.4879 35.6255 46.548 35.6204C47.306 35.6204 47.751 35.5901 48.5639 35.4788C51.3544 35.1096 54.4085 34.5077 57.5175 33.7187C58.1821 33.5518 58.7809 33.4001 58.8523 33.3849C58.9182 33.3748 58.9841 33.3445 59.0006 33.3242C59.0665 33.2231 53.98 32.0143 51.6949 31.5895C49.9537 31.2607 49.1077 31.1343 47.8114 30.9977C46.9435 30.9067 45.8669 30.8713 45.5977 30.932Z" fill="#09090B"/>
<path d="M19.3139 31.0774C19.2095 31.0875 18.836 31.1229 18.4899 31.1533C16.1005 31.3556 12.129 32.0586 8.35537 32.9386C5.93297 33.5051 4.88381 33.7883 5.01015 33.8389C5.13649 33.8844 7.34467 34.289 9.34411 34.6329C13.3814 35.3258 16.886 35.7709 18.8469 35.8468C20.0115 35.8923 20.5278 35.8569 20.9453 35.7051C21.3517 35.5585 22.6481 34.9566 22.692 34.8959C22.7579 34.7897 21.4671 31.5477 21.2858 31.3707C21.0991 31.1836 20.7201 31.0926 20.0829 31.0723C19.7643 31.0622 19.4182 31.0673 19.3139 31.0774Z" fill="#09090B"/>
<path d="M22.5846 36.7024C21.832 37.0614 21.4201 37.4661 20.9202 38.3309C19.926 40.0657 18.9098 42.0736 17.575 44.9564C16.6302 47.0048 15.9381 48.4563 15.235 49.8624C14.6088 51.1268 13.6475 53.0689 13.3564 53.6556C12.9609 54.4598 12.505 55.4915 12.5324 55.5168C12.5654 55.5522 13.9276 54.3384 14.7846 53.5089C17.965 50.4389 19.9534 48.0972 21.5519 45.5381C22.5901 43.8842 24.0292 41.1784 24.4302 40.1416C24.5785 39.7471 24.5895 39.8027 24.1391 38.685C23.9743 38.2803 23.7106 37.6178 23.5458 37.2031C23.3316 36.6568 23.2327 36.4596 23.1668 36.4596C23.1174 36.4646 22.8592 36.5709 22.5846 36.7024Z" fill="#09090B"/>
</svg>
